<svg version="1" xmlns="http://www.w3.org/2000/svg" width="682.667" height="682.667" viewBox="0 0 512.000000 512.000000"><path d="M239.5.6c-40.9 4.1-68.8 11.8-100.6 28C114 41.3 93.6 56.4 72.5 78.1 33.7 118 10.6 165.4 2.4 222.5 0 239 0 273 2.4 289.5c8.2 57.1 31.2 104.5 70.1 144.4 20.9 21.5 40 35.7 65.5 49 26.7 13.9 52.8 22.1 84.5 26.7 18 2.6 51.4 2.4 70.3-.5 43.9-6.7 82.9-23 118-49.3 12.2-9.2 34.1-30.4 44.1-42.9 29.5-36.6 47.7-78.8 54.7-127.4 2.4-16.5 2.4-50.5 0-67-4.5-31.1-12.5-56.7-26.1-83.5-12.8-25-27.9-45.3-49.6-66.5-21-20.4-40.4-34-66.3-46.5-25-12.1-47.3-19-74.2-23-13.2-1.9-44.6-3.3-53.9-2.4zm39.1 28.5c95 9.2 175.2 78.3 198.4 170.8 5.3 21.2 6.5 31.5 6.5 56.1s-1.2 34.9-6.5 56.1c-10.2 40.8-32 78.3-62.7 108-34.2 33-76 53.6-124.8 61.6-15.5 2.5-51.5 2.5-67 0-50.8-8.3-92.1-29.2-127.5-64.7-35.4-35.4-56.4-76.7-64.7-127.5-1.3-8.3-1.8-16.6-1.8-33.5 0-24.6 1.2-34.9 6.5-56.1C51.2 135.2 95.1 81.1 155.5 51.5 179.4 39.7 207 31.7 232 29.1c12.4-1.2 34-1.3 46.6 0z"/></svg>